<svg width="16" height="10" viewBox="0 0 16 10" fill="none" xmlns="http://www.w3.org/2000/svg">
<path d="M15.4563 4.8C15.4375 4.75 14.9063 3.575 13.7313 2.39375C12.1625 0.83125 10.1813 0 8.00003 0C5.81878 0 3.83753 0.83125 2.26878 2.39375C1.09378 3.575 0.562535 4.75 0.543785 4.8C0.51588 4.86298 0.501465 4.93111 0.501465 5C0.501465 5.06889 0.51588 5.13702 0.543785 5.2C0.562535 5.25 1.09378 6.425 2.26878 7.60625C3.83753 9.16875 5.81878 10 8.00003 10C10.1813 10 12.1625 9.16875 13.7313 7.60625C14.9063 6.425 15.4375 5.25 15.4563 5.2C15.4842 5.13702 15.4986 5.06889 15.4986 5C15.4986 4.93111 15.4842 4.86298 15.4563 4.8ZM8.00003 2.75C8.44504 2.75 8.88006 2.88196 9.25007 3.12919C9.62008 3.37643 9.90847 3.72783 10.0788 4.13896C10.2491 4.5501 10.2936 5.0025 10.2068 5.43895C10.12 5.87541 9.90569 6.27632 9.59102 6.59099C9.27636 6.90566 8.87545 7.11995 8.43899 7.20677C8.00253 7.29358 7.55013 7.24903 7.139 7.07873C6.72786 6.90843 6.37646 6.62004 6.12923 6.25003C5.88199 5.88002 5.75003 5.44501 5.75003 5C5.75003 4.40326 5.98709 3.83097 6.40904 3.40901C6.831 2.98705 7.4033 2.75 8.00003 2.75Z" fill="#1A1A1A"/>
</svg>
